<svg xmlns="http://www.w3.org/2000/svg" viewBox="0 0 537 111"><g fill="none" fill-rule="evenodd"><path fill="#212B36" d="M153.525 66.925V100h-13.65V25.45h13.65v27.3a22.545 22.545 0 0113.86-4.725c7.035 0 13.44 3.15 17.64 8.19 3.36 3.99 5.25 9.135 5.25 17.85V100h-13.65V73.015c0-5.04-1.155-7.665-3.045-9.555-1.785-1.785-4.515-2.835-7.665-2.835-5.775 0-10.5 3.675-12.39 6.3zm96.075-17.85V100h-13.125v-4.095c-4.2 3.57-9.03 5.145-14.175 5.145-7.56 0-14.7-3.36-19.215-8.61-3.99-4.62-6.51-10.92-6.51-17.85 0-15.015 11.13-26.565 24.99-26.565 5.775 0 10.92 1.89 14.91 5.145v-4.095H249.6zM235.95 82.15V66.925c-2.835-3.78-7.35-6.3-12.6-6.3-7.98 0-13.125 6.615-13.125 13.965 0 7.98 5.775 13.86 13.44 13.86 5.145 0 9.66-2.52 12.285-6.3zM300 89v11c-1.785.63-6.405 1.05-9.03 1.05-8.19 0-14.175-2.73-17.64-7.35-2.625-3.465-3.78-7.98-3.78-15.225v-17.85h-14.175v-11.55h14.175V34.9h13.65v14.175H300v11.55h-16.8V80.05c0 3.15.525 5.04 1.68 6.405 1.365 1.575 3.57 2.52 6.93 2.52 1.33 0 4.06.008 8.19.025zm44.05-7.27l10.5 7.875c-5.985 7.98-13.545 11.445-23.1 11.445-15.75 0-27.3-11.76-27.3-26.46 0-14.805 11.865-26.565 27.405-26.565 8.82 0 16.695 4.095 21.42 10.185l-9.66 8.505c-2.73-3.57-6.825-6.09-11.76-6.09-7.875 0-13.755 6.195-13.755 13.965 0 7.98 5.775 13.86 14.07 13.86 5.565 0 9.975-3.36 12.18-6.72zm31.45-14.805V100h-13.65V25.45h13.65v27.3a22.545 22.545 0 0113.86-4.725c7.035 0 13.44 3.15 17.64 8.19 3.36 3.99 5.25 9.135 5.25 17.85V100H398.6V73.015c0-5.04-1.155-7.665-3.045-9.555-1.785-1.785-4.515-2.835-7.665-2.835-5.775 0-10.5 3.675-12.39 6.3zm81.95-41.58V37c-1.155-.315-4.935-.525-6.195-.525-3.36 0-5.985.945-7.665 2.94-1.155 1.47-1.89 3.36-1.89 8.085v1.575h15.75v11.55H441.7V100h-13.65V60.625h-13.125v-11.55h13.125v-2.1c0-8.19 1.89-13.125 5.46-16.59 3.57-3.465 8.925-5.985 15.855-5.985 2.73 0 5.25.21 8.085.945zm40.95 23.73h13.65V100h-13.125v-4.095c-3.99 3.57-8.82 5.145-13.755 5.145-7.035 0-13.335-3.255-17.325-8.19-3.255-3.99-5.145-9.24-5.145-16.8V49.075h13.65v27.51c0 4.62.945 6.93 2.52 8.715 2.1 2.31 5.04 3.15 7.665 3.15 5.775 0 9.975-3.885 11.865-6.3V49.075zm37.85-23.625V100H522.6V25.45h13.65z"/><path fill="#9F07A9" d="M67.819 110.449V12.808c26.753 0 48.442 21.857 48.442 48.82s-21.689 48.82-48.442 48.82zm38.084-94.226c-2.808 0-5.084-8.27-5.084-11.1S103.095 0 105.903 0c2.807 0 5.083 2.294 5.083 5.123 0 2.83-2.276 11.1-5.083 11.1zm1.937 4.27c0-2.808 8.27-5.084 11.1-5.084s5.123 2.276 5.123 5.083c0 2.808-2.294 5.084-5.123 5.084-2.83 0-11.1-2.276-11.1-5.084z"/><path fill="#FFF" d="M67.819 96.78c19.262 0 34.878-15.301 34.878-34.175 0-18.874-15.616-34.175-34.878-34.175"/><path fill="#212B36" d="M91.072 55.77a9.597 9.597 0 00-5.814-1.953c-5.351 0-9.689 4.372-9.689 9.764 0 5.393 4.338 9.764 9.689 9.764 5.35 0 9.688-4.371 9.688-9.764 0-.83-.103-1.636-.296-2.405a3.876 3.876 0 01-3.58 2.405c-2.14 0-3.875-1.748-3.875-3.906 0-2.157 1.735-3.905 3.876-3.905z"/><path fill="#FFBE00" d="M67.819 12.808v68.349H0c0-37.748 30.363-68.35 67.819-68.35zm0 97.64c-21.403 0-38.754-13.114-38.754-29.291H67.82v29.292z"/><path fill="#FFF" d="M62.006 28.55v-5.978c-26.297 0-48.224 18.854-53.198 43.882C17.775 45.236 38.05 30.039 62.006 28.55z"/><ellipse cx="32.94" cy="63.581" fill="#1F2B36" fill-rule="nonzero" rx="3.875" ry="3.906"/></g></svg>