<svg xmlns="http://www.w3.org/2000/svg" viewBox="197.3 314.6 90.6 90.6"><path d="M287.9 359.9c0 25-20.2 45.3-45.3 45.3s-45.3-20.2-45.3-45.3 20.2-45.3 45.3-45.3 45.3 20.3 45.3 45.3zm-22.7 13.2c0-7.3-5.9-13.2-13.2-13.2h-7.5c-5.7 0-9.4-2.8-9.4-6.6 0-2.6 2.1-4.7 4.7-4.7 3.8 0 3.9 3.8 6.6 3.8 2.1 0 3.8-1.7 3.8-3.8 0-3.7-1.8-5.6-3.6-7.3 1-2 3.5-7.2 3.6-14.8 0-.9-.6-1.8-1.6-1.9-2-.3-4-.5-6-.5-15.9.5-26.4 8.1-26.4 20.7 0 11.3 9.4 20.7 20.7 20.7h.3c-.2.9-.3 1.9-.3 2.8 0 5.8 4 10.7 9.4 11.9v13.5c0 1 .8 1.9 1.9 1.9 5.7.2 17-9.3 17-22.5z"/></svg>