<svg xmlns="http://www.w3.org/2000/svg" viewBox="0 0 311 89"><g fill="none" fill-rule="evenodd"><path d="M0 0h311v89H0z"/><path fill="#FFF" d="M107.6 49.5c-2.7-1.5-4.1-2.7-4.1-4.4 0-2.1 1.9-3.5 4.9-3.5 3.5 0 6.6 1.5 6.6 1.5l2.4-7.5s-2.2-1.8-8.9-1.8c-9.2 0-15.6 5.3-15.6 12.7 0 4.2 3 7.4 7 9.7 3.2 1.8 4.4 3.1 4.4 5 0 2-1.6 3.6-4.6 3.6-4.4 0-8.6-2.3-8.6-2.3L88.5 70s3.9 2.6 10.4 2.6c9.5 0 16.3-4.7 16.3-13.1 0-4.5-3.5-7.7-7.6-10zm37.8-15.8c-4.7 0-8.3 2.2-11.2 5.6l-.2-.1 4.1-21.2h-10.5l-10.2 53.9h10.5l3.5-18.4c1.4-7 5-11.2 8.3-11.2 2.4 0 3.3 1.6 3.3 3.9 0 1.5-.2 3.2-.5 4.7l-4 21.1H149l4.1-21.8c.5-2.3.8-5 .8-6.9.1-6-3-9.6-8.5-9.6zm32.4 0c-12.7 0-21.1 11.5-21.1 24.2 0 8.2 5 14.8 14.5 14.8 12.5 0 20.9-11.2 20.9-24.2 0-7.6-4.4-14.8-14.3-14.8zm-5.2 30.9c-3.6 0-5.1-3.1-5.1-6.9 0-6 3.1-15.9 8.9-15.9 3.7 0 5 3.2 5 6.3 0 6.6-3.2 16.5-8.8 16.5zm46.5-30.9C212 33.7 208 40 208 40h-.2l.6-5.7h-9.3c-.5 3.8-1.3 9.6-2.1 14l-7.3 38.6h10.5l2.9-15.6h.2s2.2 1.4 6.2 1.4c12.4 0 20.5-12.7 20.5-25.5 0-7.1-3.2-13.5-10.9-13.5zm-10.1 31c-2.7 0-4.4-1.5-4.4-1.5l1.8-9.9c1.2-6.6 4.7-10.9 8.3-10.9 3.2 0 4.2 3 4.2 5.8.1 6.8-4 16.5-9.9 16.5zm36-46.1c-3.4 0-6 2.7-6 6.1 0 3.1 2 5.3 5 5.3h.2c3.3 0 6.1-2.2 6.2-6.1-.1-3.1-2.2-5.3-5.4-5.3zm-14.7 53.3h10.5l7.2-37.3h-10.6m37.4-.1h-7.3l.4-1.8c.6-3.6 2.8-6.8 6.3-6.8 1.9 0 3.4.5 3.4.5l2.1-8.3s-1.8-.9-5.7-.9c-3.7 0-7.5 1.1-10.3 3.5-3.6 3.1-5.3 7.5-6.1 11.9l-.3 1.8h-4.9l-1.5 7.9h4.9L250 71.9h10.5l5.6-29.5h7.3l1.4-7.9zm25.4.1s-6.6 16.6-9.6 25.7h-.2c-.2-2.9-2.6-25.7-2.6-25.7h-11.1l6.3 34.3c.2.8.1 1.2-.2 1.8-1.2 2.4-3.3 4.7-5.7 6.3-2 1.5-4.2 2.4-6 3l2.9 8.9c2.1-.5 6.6-2.2 10.3-5.7 4.8-4.5 9.2-11.5 13.8-20.9L311 34.6h-10.8zm-250 52.1L76.3 81s-9.4-63.7-9.5-64.1c-.1-.4-.4-.7-.8-.7-.3 0-7-.5-7-.5l-5.1-5.1c-.1-.1-.3-.2-.4-.3l-3.3 76.4zm2.1-76.4c-.1 0-.2 0-.3.1-.1 0-1 .3-2.6.8-1.5-4.5-4.3-8.5-9.1-8.5h-.4C38.6.8 36.9 0 35.5 0 24.3 0 18.9 14 17.3 21.1c-4.3 1.3-7.4 2.3-7.8 2.4-2.4.8-2.5.8-2.8 3.1C6.4 28.4 0 77.5 0 77.5l49 9.2 3.3-76.4zm-12.7 3.4v.5c-2.7.8-5.7 1.8-8.7 2.7 1.7-6.4 4.8-9.5 7.5-10.7.8 1.7 1.2 4.2 1.2 7.5zM35.2 3c.5 0 1 .2 1.4.5-3.6 1.7-7.4 5.9-9.1 14.4-2.4.7-4.7 1.5-6.8 2.1 1.9-6.4 6.4-17 14.5-17zm1.9 37.9s-2.9-1.5-6.4-1.5c-5.2 0-5.5 3.3-5.5 4.1 0 4.5 11.7 6.2 11.7 16.7 0 8.3-5.3 13.6-12.3 13.6-8.5 0-12.8-5.3-12.8-5.3l2.3-7.5s4.5 3.8 8.2 3.8c2.5 0 3.5-1.9 3.5-3.4 0-5.9-9.6-6.1-9.6-15.8 0-8.1 5.8-16 17.6-16 4.5 0 6.8 1.3 6.8 1.3l-3.5 10zm4.5-35.3c2.5.3 4.1 3.1 5.2 6.4-1.2.4-2.7.8-4.2 1.3v-.9c0-2.8-.4-5-1-6.8z"/></g></svg>